<svg width="14" height="16" viewBox="0 0 14 16" fill="none" xmlns="http://www.w3.org/2000/svg">
<path d="M1.33333 1L1.7192 0.35688C1.4875 0.217861 1.19894 0.214221 0.963804 0.34735C0.728673 0.480479 0.583328 0.729796 0.583328 1L1.33333 1ZM1.33333 15H0.583328C0.583328 15.2702 0.728673 15.5195 0.963804 15.6526C1.19894 15.7858 1.4875 15.7821 1.7192 15.6431L1.33333 15ZM13 8L13.3859 8.64312C13.6118 8.50758 13.75 8.26345 13.75 8C13.75 7.73655 13.6118 7.49242 13.3859 7.35688L13 8ZM2.08333 15V1H0.583328V15H2.08333ZM12.6141 7.35688L0.947456 14.3569L1.7192 15.6431L13.3859 8.64312L12.6141 7.35688ZM0.947456 1.64312L12.6141 8.64312L13.3859 7.35688L1.7192 0.35688L0.947456 1.64312Z" fill="#2D2B2D"/>
</svg>
